<svg width="43" height="43" viewBox="0 0 43 43" fill="none" xmlns="http://www.w3.org/2000/svg">
<path d="M42.8807 21.456H42.8219H42.8807V21.3973C42.8807 20.3987 42.8219 19.4001 42.6457 18.4015C42.6457 18.2253 42.4695 18.1078 42.2932 18.1078H31.9549C31.8962 18.1078 31.8962 18.049 31.8374 18.049C29.899 12.2925 23.6137 9.23794 17.9159 11.1764C14.6852 12.2925 12.1593 14.8183 11.0432 18.049C11.0432 18.1078 10.9845 18.1078 10.9258 18.1078H6.16777C6.10902 18.1078 6.10902 18.1078 6.10902 18.049C6.10902 17.9903 6.10902 17.9903 6.10902 17.9316C7.75376 10.8239 14.0977 5.77225 21.4403 5.77225C25.6109 5.77225 29.6053 7.41698 32.5423 10.354C32.6598 10.4715 32.7773 10.589 32.8947 10.7065L33.2472 11.0589C33.7759 11.5876 34.3633 12.0575 35.0682 12.3512C35.1856 12.4099 35.3031 12.4687 35.4206 12.5274C36.5367 12.8799 37.7702 13.0561 38.945 13.0561C39.415 13.0561 39.8849 13.0561 40.3548 12.9973H40.5898C40.7072 12.9973 40.8247 12.9386 40.8835 12.8211C40.9422 12.7036 40.9422 12.5862 40.8835 12.5274C40.1198 10.7652 39.0625 9.06172 37.7702 7.5932C30.1339 -1.45285 16.6236 -2.56892 7.57754 5.06736C2.81955 9.1792 0 15.1707 0 21.3973V21.5735C0 22.5721 0.0587406 23.5707 0.234962 24.5692C0.234962 24.7455 0.411184 24.863 0.587406 24.863H10.9845C11.0432 24.863 11.102 24.9217 11.102 24.9217C13.0404 30.6783 19.3257 33.7328 25.0235 31.7943C28.2542 30.6783 30.7801 28.1524 31.8962 24.9217C31.8962 24.8629 31.9549 24.863 32.0136 24.863H36.7716C36.8304 24.863 36.8304 24.8629 36.8304 24.9217C36.8304 24.9804 36.8304 24.9804 36.8304 25.0392C35.1269 32.1468 28.7829 37.1985 21.4403 37.2572C17.2697 37.2572 13.2754 35.6125 10.3971 32.6755C10.2796 32.558 10.1621 32.4405 10.0446 32.323C9.92717 32.2055 9.80968 32.088 9.6922 31.9706C9.16354 31.4419 8.57613 30.972 7.87124 30.6783C7.75376 30.6195 7.63628 30.5608 7.46006 30.5021C6.34399 30.1496 5.16917 29.9734 3.99436 29.9734C3.52444 29.9734 3.05451 29.9734 2.58459 30.0321H2.34962C2.23214 30.0321 2.11466 30.0909 2.05592 30.2083C1.99718 30.3258 1.99718 30.4433 2.05592 30.5021C6.99013 41.2516 19.6781 45.9508 30.4276 41.0754C38.0052 37.4922 42.8807 29.9734 42.8807 21.6322V21.456ZM15.6837 23.1595C15.6837 22.9832 15.6837 22.8658 15.625 22.7483V22.6895C15.5663 22.5721 15.5663 22.4546 15.5663 22.2784C15.5663 22.1609 15.5075 22.0434 15.5075 21.9259V21.8084C15.5075 21.691 15.5075 21.5735 15.5075 21.5147C15.5075 21.456 15.5075 21.2798 15.5075 21.1623V21.0448C15.5075 20.9273 15.5075 20.8098 15.5663 20.6924V20.6336C15.5663 20.5161 15.625 20.3987 15.625 20.2224V20.1637C15.6837 20.0462 15.6837 19.9287 15.7425 19.8113H15.6837H15.7425C15.8012 19.6938 15.8012 19.5763 15.86 19.4588C15.9187 19.3413 15.9774 19.2239 16.0362 19.1064C17.3872 16.1693 20.9117 14.8183 23.9074 16.2281C24.906 16.698 25.7871 17.4616 26.3745 18.4015C26.5508 18.6364 26.6682 18.8714 26.7857 19.1064C26.8445 19.2239 26.9032 19.3413 26.9619 19.4588V19.5176C27.0207 19.635 27.0207 19.7525 27.0794 19.87C27.1382 19.9875 27.1382 20.105 27.1969 20.2224V20.2812C27.2556 20.3987 27.2556 20.5161 27.2556 20.6924V20.7511C27.2556 20.8686 27.3144 20.9861 27.3144 21.1035V21.221C27.3144 21.3385 27.3144 21.456 27.3144 21.5147C27.3144 21.5735 27.3144 21.7497 27.3144 21.8672V21.9259C27.3144 22.0434 27.3144 22.1609 27.2556 22.2784V22.3371C27.2556 22.4546 27.1969 22.5721 27.1969 22.7483V22.807C27.1382 22.9245 27.1382 23.042 27.0794 23.1595C27.0207 23.277 27.0207 23.3944 26.9619 23.5119V23.5707C26.9032 23.6881 26.8445 23.8056 26.7857 23.9231C25.3759 26.8601 21.8515 28.1524 18.9145 26.7427C17.9159 26.2727 17.0935 25.5678 16.5061 24.628C16.3299 24.393 16.2124 24.1581 16.0949 23.9231C16.0362 23.8056 15.9774 23.6881 15.9187 23.5707V23.5119C15.86 23.3944 15.86 23.277 15.8012 23.1595H15.6837Z" fill="white"/>
</svg>
